<?xml version="1.0" encoding="UTF-8"?>
<svg viewBox="0 0 640 480" xmlns="http://www.w3.org/2000/svg">
 <defs>
  <linearGradient id="d" x1=".72302" x2=".3629" y1=".76517" y2=".3516">
   <stop stop-color="#391b0f" offset="0"/>
   <stop stop-color="#5b2318" offset=".10989"/>
   <stop stop-color="#5b2318" offset=".27473"/>
   <stop stop-color="#905036" offset="1"/>
  </linearGradient>
  <linearGradient id="c" x1=".54881" x2=".30454" y1=".54539" y2=".25941">
   <stop stop-color="#3c1a0f" offset="0"/>
   <stop stop-color="#d7bbb3" offset="1"/>
  </linearGradient>
 </defs>
 <g transform="rotate(44.243 320.04 228.39)">
  <path d="m202.84 98.058c103.58-97.527 218.94-98.733 251.56-97.288 26.949 1.1939 49.737 4.0529 59.99 6.2784 17.132 3.719 12.431 3.7108 23.042 16.717s16.898 13.668 17.279 34.635c0.31482 17.326 2.9508 104.5-29.776 180.94-32.727 76.45-55.766 95.504-85.492 123.49-29.726 27.989-97.481 72.358-172.97 88.182-39.11 8.1986-147.05 3.8745-153.95-5.2358-2.7803-4.1843-6.9858-8.8571-10.327-11.398-7.4935-8.3862-12.516-25.939-13.296-40.449-0.78027-14.51-6.4872-96.17 29.873-175.3 36.36-79.125 84.07-120.58 84.07-120.58z" fill="url(#d)" stroke="#391b0f" stroke-width="2"/>
  <g fill="#fff">
   <path d="m114.78 227.73c-8.5499 20.393-14.432 40.77-18.446 59.958 2.3773 5.0082 5.275 11.027 6.1117 12.346 1.3105 2.0659 4.8677 3.6616 4.8677 3.6616s-0.1196 2.8721 3.3504 6.7556c3.47 3.8829 49.491 59.574 67.06 80.434 17.569 20.861 29.89 33.451 31.492 35.243 0.91768 1.0266 2.6771 2.2431 4.0719 3.1279 7.6687-2.1768 20.144-5.8617 29.258-9.2838 12.722-4.7769 20.591-8.0931 25.288-10.214-0.45837-1.7861-1.3909-4.2744-3.1928-5.5669-2.984-2.1403-50.04-52.982-73.724-81.285-23.684-28.304-58.599-68.584-60.2-70.377-1.6011-1.7923-1.6889-6.6821-1.6889-6.6821s-1.4673 1.9336-5.1801-2.8209c-3.7129-4.7546-6.5856-9.7422-7.8721-12.381-0.31078-0.63757-0.73061-1.6975-1.1953-2.915z"/>
   <path d="m346.96 14.638c3.7694 0.7298 8.125 1.8757 11.002 3.5917 4.9921 2.9772 3.5672 2.1508 7.8616 6.3574 3.0382 2.9758 1.8004 3.4438 0.81162 3.4675 1.6904 0.099302 6.4066 0.50293 7.7264 1.9803 1.6015 1.7923 40.569 41.396 65.999 68.056s64.768 74.885 66.588 78.122c0.9567 1.7012 2.6426 2.9835 4.0414 3.8384 3.1093-5.7457 10.326-19.4 14.663-30.35 3.1651-7.9908 5.7303-14.865 7.4684-19.59-0.12976-2.1546-0.42426-4.1955-1.083-4.9324-1.6015-1.7924-27.504-34.629-46.237-54.394-18.733-19.764-49.948-49.974-53.418-53.857-3.4701-3.8832-8.7739-4.1337-8.7739-4.1337s-0.19449-3.3356-2.0698-4.8762c-3.7626-3.0906-8.3141-4.7506-12.233-5.654-17.804 1.854-39.068 5.5091-62.348 12.374z"/>
  </g>
  <path d="m217.44 121.35c-67.286 64.265-93.678 118.63-111.92 180.54-18.534 62.892-14.888 96.556-15.101 104.78-0.14774 5.7097 1.8795 10.365 5.6525 17.074-2.958-5.5912-4.3293-8.954-4.101-14.385 0.33969-8.0769-3.8623-43.316 15.391-105.4 19.253-62.086 46.642-116.67 116.32-182.28 69.682-65.61 116.54-88.998 189.27-106 68.977-16.125 109.9-5.266 116.21-2.8112-0.61829-0.58698-1.1279-0.99493-1.462-1.1897-2.72-1.5859-43.003-14.105-116.58 1.9548-73.576 16.06-120.77 39.072-190.45 104.68-1.0889 1.025-2.1674 2.0262-3.2356 3.0463zm-114.57 314.43c2.0997 2.394 7.0071 7.0468 15.171 9.3582 20.105 5.693 74.295-5.064 125.82-22.477s119.85-57.562 162.3-97.528c42.446-39.965 64.799-63.775 101.03-130.37 36.233-66.598 40.92-108.77 44.006-132.4 2.3688-18.138-1.3366-25.526-3.8904-28.88 2.3954 3.2914 5.2042 10.196 1.9282 29.034-4.0324 23.186-7.761 63.466-44.508 129.49-36.747 66.023-59.143 89.786-101.59 129.75-42.446 39.965-110.39 80.542-161.42 98.506-51.033 17.964-105.59 28.313-125.3 23.056-7.3804-1.9676-11.569-5.4453-13.541-7.5344zm444.44-402.3c-0.17267-0.22638-0.32715-0.44214-0.487-0.63355 0.1579 0.19397 0.32269 0.4082 0.487 0.63355zm-2.166-2.6021c0.22552 0.27039 0.49445 0.61279 0.64691 0.78345 0.13806 0.15448 0.31964 0.35657 0.47711 0.53381-0.18854-0.21118-0.80328-0.94452-1.124-1.3173z" fill="url(#c)" opacity=".456"/>
  <g fill="none" stroke="#000" stroke-dasharray="32.00000151,4.00000018" stroke-width="4">
   <path d="m146.55 250.23c-3.5425-0.15704-5.0385-0.74347-2.7743-6.3682 2.2647-5.6241 13.867-52.47 84.077-118.58 70.21-66.107 124.2-84.012 131.57-84.466 7.3702-0.4538 4.6872 3.0701 3.9629 8.2426-0.72421 5.1724 3.0655 23.555-3.5987 31.327-6.6642 7.7716-10.645 12.019-10.645 12.019s2.5943-7.4311-2.49-13.121c-5.0844-5.6894-48.202 12.957-102.84 64.401-54.637 51.444-66.402 72-64.661 78.843 1.6109 6.3337 16.15 1.7564 16.15 1.7564s-2.6377 8.4705-9.1706 13.125c-11.64 8.2937-39.578 12.819-39.578 12.819z" opacity=".343"/>
   <path d="m125.8 218c-0.15289 3.6362-1.2878 9.4506 3.0315 6.1258 4.7433-3.6512 18.1-44.734 88.31-110.84 70.21-66.107 113.49-83.132 120.11-86.497 5.3465-2.7192-1.651-3.7244-7.4634-2.7461-24.533 4.1288-87.968 40.725-123.26 77.91-59.622 60.496-74.157 95.229-80.729 116.05z" opacity=".343"/>
  </g>
  <g stroke="#b8b8b8">
   <path d="m144.73 204.19c-2.2942-2.5911-2.7072-4.0982 0.43713-9.3977 3.1439-5.2991 7.2518-10.552 10.556-14.108 3.3047-3.5563 7.0219-5.6049 9.3398-8.7135 2.3174-3.1091 5.783-10.128 9.1104-14.179 3.3279-4.0511 9.8219-8.6902 11.382-11.093 1.5606-2.402 3.4887-7.5132 9.5697-13.66 6.0811-6.1469 10.051-8.4314 12.07-10.316 2.0194-1.884 3.6032-4.781 9.4548-11.187 5.8516-6.4062 9.7987-8.1959 13.08-11.258 3.2811-3.0615 2.1803-5.3466 9.9363-11.163 7.7561-5.8172 12.644-7.065 15.672-9.891 3.0294-2.8265 5.6685-7.6545 11.635-11.328 5.966-3.6738 10.556-3.6971 14.548-6.476 3.993-2.7789 6.6089-7.1126 10.854-10.127 4.2456-3.0143 16.407-10.103 19.528-9.702 3.1206 0.40057 5.2772 0.75403 7.5715 3.3456 2.2947 2.5911-2.3639 4.0977-6.5858 6.6179-4.2224 2.5196-8.9955 6.4998-11.015 8.3838-2.0194 1.884-8.0772 7.5366-11.06 9.3735-2.9831 1.837-9.1558 4.757-14.365 7.7244-5.2087 2.9668-7.5957 7.5599-12.621 11.776-5.0256 4.2153-12.896 7.3-14.939 9.6788-2.0421 2.3788-8.1694 9.5153-10.946 12.106-2.7768 2.5905-9.0181 6.9946-11.543 9.3496-2.5242 2.355-8.2154 10.504-11.221 12.836-3.0062 2.3316-8.0086 6.0526-11.818 10.08-3.8095 4.0273-6.0125 9.8682-10.074 14.131-4.0616 4.2628-9.064 7.9841-12.392 12.035-3.3279 4.0512-3.9935 7.9843-7.8488 13.001-3.8553 5.0165-7.871 8.2902-11.451 12.576-3.5801 4.2866-6.1733 8.1255-8.0319 11.753-1.8591 3.6273-3.1444 5.2991-4.4977 3.2499-1.3538-2.0491-4.3364-5.4175-4.3364-5.4175v-4.88e-4z" fill="#eee"/>
   <g fill="#fff">
    <path d="m140.66 199.51c-1.0895-1.4939-2.5679-2.8737 0.69775-7.4604 3.2657-4.5867 4.6879-4.9179 5.5329-3.6977 0.84496 1.2203 5.2139 6.9338 8.749 11.165 3.5351 4.2309 9.193 9.7385 10.783 11.518 1.5896 1.7789 1.6237 4.0147 1.6577 6.2505 0.034134 2.2358 0.35672 3.6958-2.566 3.1721-2.9228-0.52386-5.8234-1.5723-9.0248-4.6055-3.2013-3.0333-10.204-10.046-11.661-11.951-1.4563-1.9045-4.1685-4.3904-4.1685-4.3904z"/>
    <path d="m159.56 173.4c-0.95622-1.6195-1.2348-4.1289 0.53136-6.5478 1.7661-2.4188 2.8657-4.2101 4.0104-4.028 1.1446 0.18213 1.8673 1.2655 3.079 2.8963 1.2117 1.6309 3.1241 4.8698 7.5261 9.7963 4.402 4.9264 7.6475 6.9101 9.4817 8.9628s4.7238 3.3636 4.2577 5.3143c-0.46614 1.9508-0.68776 4.1752-2.1211 4.7689-1.4333 0.59357-6.1561 0.25293-9.8577-3.0653-3.7015-3.3182-9.6481-8.0502-12.216-10.924s-4.6916-7.1735-4.6916-7.1735z"/>
    <path d="m221.28 101.59c-0.63895-1.2084-0.32031-3.3185 1.3555-4.8965 1.6759-1.5779 3.2312-5.7574 5.2868-5.4303 2.0557 0.32709 3.0348 4.3829 6.3485 7.598 3.3138 3.2151 11.459 11.837 14.812 14.11 3.3534 2.2728 3.9725 3.9524 4.3523 5.8574 0.37976 1.905-0.15848 3.7694-1.5751 4.6506-1.4166 0.88135-2.8134 1.2916-7.7436-1.7592-4.9301-3.0507-14.252-11.016-16.887-13.966-2.6352-2.949-5.9489-6.1641-5.9489-6.1641z"/>
    <path d="m251.52 71.301c1.9152-1.8033 3.8718 0.87958 5.868 2.6202s12.996 13.557 15.411 16.26c2.4155 2.7033 6.0479 3.8083 5.7095 6.3896-0.33844 2.5811 0.9989 3.5845-1.1359 5.1421-2.1349 1.5577-5.8267 1.8661-8.6815-1.3287-2.8547-3.1948-12.756-13.782-14.752-15.523-1.9962-1.7407-5.589-3.788-6.687-5.0168-1.098-1.2287-2.9141-1.7813-0.52005-4.0354 2.394-2.2542 4.7881-4.5084 4.7881-4.5084z"/>
    <path d="m279.38 54.125c2.3346-0.84064 4.3704-0.042419 7.245 2.6812 2.8746 2.7237 13.914 13.598 15.451 15.318 1.5372 1.7202 3.6539 6.0624 3.3353 8.1725-0.31863 2.1102-2.9719 5.0608-5.4667 4.2423-2.4948-0.81866-5.9077-1.6779-7.785-6.2455s-11.419-12.779-13.176-14.745c-1.7567-1.966-3.9114 0.062683-5.6682-1.9033-1.7567-1.966-2.1563-3.3998 0.19815-4.7117 2.3544-1.3118 5.8663-2.8084 5.8663-2.8084z"/>
    <path d="m205.79 114.36c2.1349-1.5576 2.2357 1.5153 4.2318 3.2559 1.9962 1.7406 12.636 11.181 15.91 15.338 3.2741 4.1575 5.2703 5.898 3.9544 9.8522-1.3159 3.954-1.7749 3.9338-6.2858 1.8458-4.5107-2.0881-8.6237-8.171-12.596-12.123-3.9725-3.9523-7.7453-7.1878-9.9412-9.6453-2.196-2.4575-1.2185-3.8303 0.21791-5.1828s4.5091-3.3407 4.5091-3.3407z"/>
    <path d="m304.38 39.183c3.5119-1.4966 5.8269-1.8663 8.0428 0.12005 2.2158 1.9863 15.75 13.679 17.467 16.587 1.717 2.9086 3.614 7.0052 2.8365 9.0949-0.77756 2.0896 0.002014 5.4286-5.6069 2.1119-5.6088-3.3168-8.9821-5.1187-11.378-8.2932-2.3955-3.1745-4.6527-9.647-8.2258-12.166-3.5732-2.5186-4.5304-1.6166-5.8679-2.6204-1.3376-1.0033 0.63745-4.2197 0.63745-4.2197l2.0949-0.6154z"/>
    <path d="m182.23 138.8c1.6758-1.5779 1.4364-1.3525 4.0716 1.5965s3.4937 4.4031 7.2268 8.581c3.7331 4.1778 5.13 3.7676 7.7651 6.7167 2.6351 2.949 4.8905 3.993 6.1685 6.4099 1.2779 2.4169 1.4976 2.6626 0.46063 5.449-1.0368 2.7863-6.1057 3.0338-11.416-1.9219-5.31-4.9558-15.671-15.564-17.408-18.001-1.737-2.4372-0.93948-4.998 0.2377-5.654 1.1773-0.65594 2.8928-3.1761 2.8928-3.1761z"/>
   </g>
  </g>
 </g>
</svg>
