<?xml version="1.0" encoding="UTF-8"?>
<svg viewBox="0 0 1000 1000" xmlns="http://www.w3.org/2000/svg">
 <defs>
  <linearGradient id="c" x1=".47843" x2=".75808" y1=".30118" y2=".84198">
   <stop stop-color="#fff" offset="0"/>
   <stop stop-color="#c5c5c5" offset=".76142"/>
   <stop stop-color="#5d5d5d" offset="1"/>
  </linearGradient>
  <radialGradient id="d" cx="444.77" cy="361.22" r="369.8" gradientTransform="matrix(-1.3068 -1.0068e-7 8.8353e-8 -1.1468 1040.3 728.58)" gradientUnits="userSpaceOnUse">
   <stop stop-color="#fff" offset="0"/>
   <stop stop-color="#cbcbcb" offset="1"/>
  </radialGradient>
 </defs>
 <path d="m943.43 837.53c7.9329 1.9833 18.51-12.56 19.832-31.071 1.3222-18.51 3.9665-64.125 3.9665-101.14 0-37.02-5.2886-78.668-9.2551-94.534-3.9664-15.866-21.511-33.555-27.104-19.171-4.6276 11.899 0.92499 13.883 4.8914 31.071 3.9665 17.188 11.636 57.514 11.636 102.47 0 44.953-1.9833 65.447-1.9833 76.685s-7.9329 9.2551-9.9161 11.899c-1.9833 2.6444-5.2886 7.2719-4.6276 13.222 0.66107 5.9496 12.56 10.577 12.56 10.577z"/>
 <path d="m717.89 392.66c6.5596 16.763 37.9 101.31 44.459 124.63 6.5596 23.323 6.7581 23.277 10.204 30.611 1.6415 3.494 4.8726 4.7948 11.661 5.1019 10.946 0.49518 44.459 0 72.155 2.9153s48.241 8.3403 62.227 17.146c13.985 8.8055 24.863 22.273 27.452 29.006 2.5898 6.7336-3.6258 9.8415-9.8415 8.2875-6.2156-1.5539-10.877-6.2156-17.093-12.431-6.2156-6.2156-26.934-16.575-55.423-20.201-28.488-3.6258-75.106-6.7336-77.178-6.7336-2.0719 0-3.6258-0.51794-3.1078 4.6617 0.51794 5.1798 3.6258 16.575 5.1797 19.683 1.5539 3.1078 1.5539 4.1438 10.359 4.1438 8.8055 0 56.977 4.1437 71.48 5.1797s33.668 6.7336 45.582 10.877c11.913 4.1437 26.417 12.949 32.632 18.647 6.2157 5.6977 9.8415 13.467 9.8415 19.683 0 6.2156-1.5539 13.467-5.6977 19.165-4.1438 5.6977-9.3235 6.2156-13.467 3.1078-4.1438-3.1078-12.949-2.5898-7.7696-12.949 5.1798-10.359-0.51794-19.683-17.093-25.381-16.575-5.6977-51.279-16.057-80.286-18.129-29.006-2.0718-32.632-1.036-32.632-1.036s-5.3116 0.034546-3.6258 6.2157c4.6617 17.093 11.395 42.992 13.985 51.279 2.5898 8.2876 13.445 29.413 25.899 41.438 15.021 14.503 51.797 36.776 68.89 51.279s27.97 32.632 33.15 43.51c5.1797 10.877 6.2156 11.913 7.2516 18.129 1.036 6.2156-1.5539 15.021-5.1798 14.503-3.6258-0.51794-8.8055 6.7336-15.021-12.949-6.2156-19.683-14.503-35.222-39.366-54.387s-37.294-30.56-52.833-41.438c-11.79-8.2532-23.309-18.647-30.042-31.596-6.7336-12.949-16.055-40.133-21.237-62.157-4.1438-17.611-6.7336-22.791-13.985-23.309-10.346-0.73901-44.028 1.036-58.013 0.51794-13.985-0.51794-27.97-0.51794-42.992-1.5539-15.021-1.036-25.381-18.647-3.1078-19.683s98.415 0.51794 101.52 0c3.1078-0.518 3.6258-1.554 2.0719-5.1798-1.554-3.6258-5.6977-19.165-6.7336-21.755-1.036-2.5898-7.7696-0.518-14.503-1.554-6.7336-1.0359-19.165-7.7695-33.15-45.582s-33.15-27.97-33.15-27.97-2.5898 4.6618-17.611 5.1797c-15.021 0.51794-18.647-8.8055-10.359-12.431 8.2875-3.6258 24.863-10.359 36.776-11.913 11.913-1.5539 24.345 4.1438 29.006 14.503 4.6617 10.359 18.647 40.92 22.791 47.654 4.1438 6.7336 3.2856 5.572 6.2156 7.7695 6.2157 4.6617 7.2516 0 1.554-12.949-5.6977-12.949-18.129-56.459-23.827-67.854-5.6977-11.395-21.237-56.459-26.417-69.408-5.1797-12.949 6.7336-22.791 11.913-14.503 5.1798 8.2875 6.4828 10.208 6.4828 10.208z"/>
 <path d="m586.56 400.5c-16.029 0.022614-32.59 0.75046-49.062 2.5312-87.853 9.4976-257.64 86.679-324.12 175.72-66.483 89.04-5.9375 169.75-5.9375 169.75s19.005 34.433 38 15.438 86.663-55.784 113.97-67.656c27.306-11.872 72.419-24.929 123.47 8.3125 51.05 33.242 99.729 39.156 138.91 39.156 39.178 0 83.096-33.229 93.781-73.594s-9.5012-74.794-14.25-125.84c-4.7488-51.05 7.1268-98.539 14.25-130.59 0 0-59.541-13.317-129-13.219zm-47.125 113.75c12.564 0.057861 25.877 5.095 36.156 14.75 18.274 17.164 20.015 42.447 3.875 56.469-16.14 14.021-44.038 11.477-62.312-5.6875s-20.015-42.447-3.875-56.469c7.0611-6.1344 16.384-9.1075 26.156-9.0625z" fill="#878787" stroke="#4c4c4c"/>
 <path d="m393.84 113.34c-143.99 0.26733-274.14 115-314.62 198.28-45.737 94.088-46.274 187.56-15.406 284.91 30.867 97.35 64.097 135.35 78.344 175.72 14.246 40.365 28.502 32.062 38 32.062 9.4976 0 29.667-9.4937 72.406 15.438 64.025 37.348 127.04 60.531 173.34 60.531 46.301 0 85.479-8.2941 127.03-59.344 41.552-51.05 4.7455-111.6-13.062-153.16-17.808-41.552-14.246-74.79 3.5625-110.41 17.808-35.616 66.965-60.8 102.09-71.25 42.032-12.504 70.736-27.486 104.83-42.74 34.499-15.432 35.258-34.42 28.135-49.854-7.1232-15.434-36.815-65.286-46.312-83.094-9.4976-17.808-72.411-197.59-338.34-197.09zm-72.375 546c12.564 0.057922 25.877 5.095 36.156 14.75 18.274 17.164 20.015 42.447 3.875 56.469-16.14 14.021-44.038 11.446-62.312-5.7188-18.274-17.164-20.015-42.447-3.875-56.469 7.0611-6.1343 16.384-9.0763 26.156-9.0312z" fill="url(#d)" stroke="#a7a7a7"/>
 <path d="m652.52 346.14c27.921-11.862 50.3-19.686 64.264-25.004 15.677-5.9706 24.766-17.087 33.503 1.5269 11.307 24.089 24.897 51.377 32.463 63.466 6.8452 10.937 5.6213 27.593 0.97974 35.901-6.9832 12.499-20.422 20.123-28.417 23.55-7.9949 3.4264-48.282 23.008-69.217 30.514-12.128 4.3484 7.8568-8.9366 0.47723-21.183-5.6789-9.4241-21.435-20.902-29.048-37.748-23.748-52.546-26.022-61.578-5.0046-71.022z" fill="url(#c)" stroke="#cecece"/>
 <path d="m779.53 387.88c-16.945 11.202-68.442 36.627-97.69 50.496-28.62 13.566-122.78 59.383-147.91 71.375-25.127 11.992-40.542 17.136-50.25 26.844-9.7081 9.7081-43.954 45.669-55.375 59.375s-13.716 17.147-16 24c-2.2842 6.8528-7.437 16.55-13.719 31.969-6.2817 15.419-29.119 71.959-33.688 85.094-4.5685 13.134-5.6935 14.849-1.125 22.844 4.5685 7.9949 6.2637 3.4345 13.688 5.7188 7.4238 2.2842 40.561 18.852 59.406 24.562 18.845 5.7106 33.13 6.2842 82.812 4 27.84-1.28 52.278-3.4919 76.719-6.0625 2.3598 5.937 9.0873 22.917 15.5 40.406 7.6354 20.824 24.979 61.088 63.156 71.5s84.695 13.188 116.62 13.188c31.93 0 90.211-7.6345 104.09-13.188 13.883-5.553 42.264-13.38 50-43.031 4.0559-15.546 1.8845-25.298-2.0795-35.17-3.3722-8.3987-21.002-0.19324-17.214 9.7372 5.8519 15.342-0.16516 28.89-17.518 39.996s-72.868 20.844-119.38 20.844c-46.507 0-81.211-3.4734-95.094-6.25s-39.573-14.593-54.844-50.688c-10.68-25.243-17.383-41.784-20.594-49.781 11.816-1.3193 23.861-2.6886 36.531-4.0625 47.398-5.1396 105.65-18.871 158.19-33.719 52.538-14.848 106.78-43.962 119.34-54.812 12.563-10.85 26.99-22.319 24.562-38.844-0.9549-6.5019-4.3568-7.9945-9-7.1562-4.0429 0.72992-6.9039 5.6865-17.125 16.406-22.554 23.654-42.838 30.789-63.156 39.594-10.722 4.6461-49.937 19.89-112.44 34.5-62.5 14.61-130.67 23.125-140.41 23.125-9.7403 0-8.9893-4.7179-11.188-9.9375-2.7553-6.5424-2.7915-7.9788-3.4375-11.156-0.97699-4.8055-0.55127-6.5004 6.0938-6.9062 11.755-0.7179 86.425-10.379 110.22-14.875 45.738-8.6417 86.735-21.255 103.38-26.531 37.069-12.382 65.587-24.84 96.75-44.594 10.695-7.1267 21.536-16.257 28-26.344 6.9851-10.901-0.26697-25.244-12.812-36.344-12.097-10.703-21.719-4.5771-21.719 0.5625s2.3035 8.5792 9.1562 13.719c6.8528 5.1396 5.6935 11.982 1.125 19.406-4.5685 7.4238-11.389 11.435-30.969 22.312-19.579 10.877-63.63 26.666-95.719 37-32.088 10.334-63.076 16.305-88.094 20.656s-94.642 11.975-103.34 13.062c-8.702 1.0878-15.762 4.3323-17.938-0.5625-2.1755-4.8948-2.1989-8.134-7.0938-23.906-4.8948-15.772-53.97-128.6-57.062-135.56-3.0922-6.9573-2.3109-7.7039 0.78125-9.25s8.5632-4.3441 31.344-14.469c22.78-10.125 72.297-38.551 123.19-61.594 33.793-15.301 100.86-46.801 120.24-64.494 7.4993-6.847 0.084045-24.249-16.928-13.002zm-280.6 168.62c1.3946 0.025696 2.4326 0.85565 2.8438 2.5 0.93964 3.7586 23.474 53.065 34.75 79.375s23.966 61.084 25.375 65.312c1.4094 4.2283 4.7313 9.1822-2.8125 9.875-4.385 0.40271-11.748 7.5146-26.312-12.688-14.564-20.202-23.016-32.889-29.594-40.406-6.5774-7.517-12.217-15.516-26.781-22.094-14.564-6.5774-31.492-14.091-35.25-15.5-3.7586-1.4094-8.4535-3.7361-1.4062-9.8438 7.0472-6.1076 24.919-26.325 32.906-34.781 7.9869-8.4567 19.719-17.844 19.719-17.844 2.3784-2.6427 4.7694-3.9393 6.5625-3.9062zm-70.188 86.531c0.50641 0.032776 1.0409 0.1908 1.625 0.46875 7.2276 3.4391 34.474 16.544 39.844 18.781 5.3693 2.2372 11.169 9.8295 23.25 25.938s27.744 38.483 32.219 42.062c4.4744 3.5795 13.864 8.9574 22.812 8.0625 8.9488-0.8949 27.305-4.9176 30.438 4.0312 3.1321 8.9488 6.7188 19.242 6.7188 21.031 0 1.7898 2.2216 5.365-4.9375 5.8125-7.1591 0.44745-64.862 3.1364-82.312 4.0312-17.45 0.8949-32.234 3.125-56.844-6.7188-24.609-9.8438-42.932-16.116-47.406-17.906-4.4744-1.7898-11.202-1.3281-4.9375-16.094 6.2642-14.766 24.17-59.499 27.75-68 3.5796-8.5014 3.6762-8.8212 5.125-12.75 1.3723-3.7214 3.1114-8.9799 6.6562-8.75z"/>
 <path d="m862.17 658.37c-1.7898 5.8167-1.7898 11.517 0.44745 12.859 2.2372 1.3424 11.047 0.028931 25.504 49.219 3.591 12.218 10.291 70.696 10.291 86.804s0.44745 80.092-0.89484 83.672c-1.3424 3.5796-3.1321 8.9489 2.6846 8.5015 5.8168-0.44745 11.634-1.3424 15.66-6.7117 4.027-5.3693 1.7898-49.666 1.7898-87.699s-6.2642-79.198-14.318-101.57c-8.054-22.372-14.766-42.06-22.372-47.876-7.6066-5.8168-17.432-1.6198-18.793 2.8016z"/>
 <g stroke="#cecece" stroke-width="2.2">
  <g fill="#898989" fill-opacity=".529">
   <path d="m710.53 449.29s11.778-3.8043 7.1401-14.627c-2.9406-6.8614-6.1843-9.663-11.982-8.8899-4.5975 0.61298-4.2517-1.5461-8.1169-7.7304s-8.5034-12.369-1.9326-16.62c8.2925-5.3657 16.234-8.1169 19.712-10.05 3.4787-1.9326 4.6382 2.7057 7.7304 7.3439 3.7169 5.1879 4.6445 11.08 10.436 9.663 6.3251-1.5473 11.641 1.6372 14.688 9.2765 2.2411 5.6196 4.3735 11.656-5.2894 17.068-7.2956 4.0855-18.532 10.375-23.943 13.467-5.4113 3.0921-8.4425 1.0986-8.4425 1.0986z"/>
   <path d="m756.81 425.44s11.413-3.6889 6.9189-14.183c-2.8495-6.6532-5.9927-9.3698-11.611-8.6202-4.4551 0.59439-4.12-1.4992-7.8654-7.4959s-8.24-11.993-1.8727-16.116c8.0356-5.2029 14.388-5.6334 17.759-7.5074 3.3709-1.874 4.4945 2.6235 7.4908 7.1211 3.6018 5.0306 2.2634 10.744 7.8754 9.3698 6.1292-1.5004 10.386 2.0349 13.338 9.4425 2.1717 5.4491 2.4483 9.5131-5.5729 14.76-6.7818 4.4363-13.036 9.1655-18.28 12.164-5.2436 2.9984-8.1809 1.0653-8.1809 1.0653z"/>
  </g>
  <path d="m390.9 670.81s-1.8793-1.4094-6.5774 1.8793c-4.6982 3.2887-13.155 32.887-15.974 38.525-2.8189 5.6378-4.6982 12.685-1.8793 16.444 2.8189 3.7586 11.745 9.3964 17.853 8.4567 6.1076-0.93964 7.9869-7.0472 12.685-6.1076 4.6982 0.93964 17.383 7.517 24.43 10.336 7.0472 2.8189 36.646 10.806 48.391-7.0472s-1.8793-32.887-17.853-39.464c-15.974-6.5774-33.827-12.215-37.115-13.625-3.2887-1.4094-5.168 2.3491-9.8662 2.8189-4.6982 0.46985-8.4567-0.46979-12.215-4.2283-3.7586-3.7586-1.8793-7.9869-1.8793-7.9869z" fill="#4c4c4c" fill-opacity=".531"/>
 </g>
 <path d="m454.28 724.78c-2.5749 8.3967-13.008 12.641-23.299 9.4774-10.29-3.1633-16.538-12.535-13.952-20.928 2.5749-8.3967 13.008-12.641 23.299-9.4774 10.29 3.1633 16.538 12.535 13.952 20.928z" fill="#bdbdbd"/>
</svg>
