<?xml version='1.0' encoding='utf-8'?>
<svg xmlns:xlink="http://www.w3.org/1999/xlink" xmlns="http://www.w3.org/2000/svg" viewBox="0 0 3614.76 1310.5"> <defs> <style> .cls-1, .cls-10, .cls-11, .cls-12, .cls-2, .cls-3, .cls-4, .cls-5, .cls-6, .cls-7, .cls-8, .cls-9 { stroke: #000; stroke-linecap: square; } .cls-1, .cls-2, .cls-3, .cls-4, .cls-5, .cls-6 { stroke-width: 14.99px; } .cls-1 { fill: url(#New_Gradient_Swatch_2); } .cls-2 { fill: url(#New_Gradient_Swatch_2-2); } .cls-3 { fill: url(#Dull_Brass); } .cls-4 { fill: url(#New_Gradient_Swatch_2-3); } .cls-5 { fill: url(#New_Gradient_Swatch_2-4); } .cls-6 { fill: url(#Dull_Brass-2); } .cls-10, .cls-11, .cls-12, .cls-7, .cls-8, .cls-9 { stroke-width: 14.76px; } .cls-7 { fill: url(#Gold_Radial); } .cls-8 { fill-opacity: 0.42; fill: url(#Opal); } .cls-9 { fill: url(#Dull_Brass-3); } .cls-10, .cls-11 { opacity: 0.5; } .cls-10 { fill: url(#linear-gradient); } .cls-11 { fill: url(#linear-gradient-2); } .cls-12 { fill: url(#linear-gradient-3); } </style> <linearGradient id="New_Gradient_Swatch_2" data-name="New Gradient Swatch 2" x1="363.17" y1="794.69" x2="814.6" y2="794.69" gradientUnits="userSpaceOnUse"> <stop offset="0"/> <stop offset="0.34" stop-color="#5b3419"/> <stop offset="0.51" stop-color="#8d5027"/> <stop offset="0.65" stop-color="#8a4d26"/> <stop offset="0.77" stop-color="#804222"/> <stop offset="0.88" stop-color="#6f311c"/> <stop offset="0.99" stop-color="#571814"/> <stop offset="1" stop-color="#541513"/> </linearGradient> <linearGradient id="New_Gradient_Swatch_2-2" x1="362.21" y1="792.65" x2="796.43" y2="792.65" xlink:href="#New_Gradient_Swatch_2"/> <linearGradient id="Dull_Brass" data-name="Dull Brass" x1="76.41" y1="493.24" x2="392.36" y2="493.24" gradientUnits="userSpaceOnUse"> <stop offset="0.01" stop-color="#ebc17d"/> <stop offset="0.19" stop-color="#dfb77c"/> <stop offset="0.6" stop-color="#c08329"/> <stop offset="0.87" stop-color="#eabe81"/> <stop offset="1" stop-color="#eedcc3"/> </linearGradient> <linearGradient id="New_Gradient_Swatch_2-3" x1="2828.91" y1="787.46" x2="3277.79" y2="787.46" xlink:href="#New_Gradient_Swatch_2"/> <linearGradient id="New_Gradient_Swatch_2-4" x1="3122.89" y1="823.15" x2="2968.71" y2="734.13" xlink:href="#New_Gradient_Swatch_2"/> <linearGradient id="Dull_Brass-2" x1="3248.34" y1="483.98" x2="3564.22" y2="483.98" xlink:href="#Dull_Brass"/> <radialGradient id="Gold_Radial" data-name="Gold Radial" cx="1800.9" cy="660.63" r="359.18" gradientUnits="userSpaceOnUse"> <stop offset="0" stop-color="#fffbcc"/> <stop offset="0.11" stop-color="#fbf2bb"/> <stop offset="0.34" stop-color="#f0d98e"/> <stop offset="0.37" stop-color="#eed688"/> <stop offset="0.69" stop-color="#ebbb10"/> <stop offset="1" stop-color="#c3922e"/> </radialGradient> <linearGradient id="Opal" x1="1314.47" y1="682.16" x2="2305.14" y2="682.16" gradientUnits="userSpaceOnUse"> <stop offset="0" stop-color="#fdebf3"/> <stop offset="0.11" stop-color="#f7eaf3"/> <stop offset="0.23" stop-color="#faf1f2"/> <stop offset="0.35" stop-color="#fffef0"/> <stop offset="0.48" stop-color="#fbfbf0"/> <stop offset="0.6" stop-color="#f0f3f2"/> <stop offset="0.71" stop-color="#dde5f4"/> <stop offset="0.71" stop-color="#dce4f4"/> <stop offset="1" stop-color="#fee9df"/> </linearGradient> <linearGradient id="Dull_Brass-3" x1="3149.3" y1="1428.16" x2="352.3" y2="-186.69" xlink:href="#Dull_Brass"/> <linearGradient id="linear-gradient" x1="1388.68" y1="922.17" x2="285.14" y2="285.04" gradientUnits="userSpaceOnUse"> <stop offset="0" stop-color="#d6e5e5" stop-opacity="0.4"/> <stop offset="0.21" stop-color="#ededee"/> <stop offset="0.29" stop-color="#e9eee7" stop-opacity="0.77"/> <stop offset="0.4" stop-color="#e2efdd" stop-opacity="0.4"/> <stop offset="0.46" stop-color="#e7f2df" stop-opacity="0.51"/> <stop offset="0.6" stop-color="#f4f8e2" stop-opacity="0.77"/> <stop offset="0.7" stop-color="#fcfce4" stop-opacity="0.94"/> <stop offset="0.75" stop-color="#fffde5"/> <stop offset="0.99" stop-color="#cee3e6" stop-opacity="0.4"/> </linearGradient> <linearGradient id="linear-gradient-2" x1="3364.76" y1="968.25" x2="2079.48" y2="226.19" xlink:href="#linear-gradient"/> <linearGradient id="linear-gradient-3" x1="1807.39" y1="295.09" x2="1807.39" y2="471.32" gradientUnits="userSpaceOnUse"> <stop offset="0" stop-color="#e4a324"/> <stop offset="0.03" stop-color="#e7b141"/> <stop offset="0.06" stop-color="#eabf5c"/> <stop offset="0.1" stop-color="#edc972"/> <stop offset="0.15" stop-color="#efd283"/> <stop offset="0.2" stop-color="#f0d88e"/> <stop offset="0.28" stop-color="#f1db95"/> <stop offset="0.5" stop-color="#f1dc97"/> <stop offset="0.7" stop-color="#f0da96"/> <stop offset="0.77" stop-color="#ebd391"/> <stop offset="0.82" stop-color="#e3c888"/> <stop offset="0.86" stop-color="#d8b77c"/> <stop offset="0.9" stop-color="#c9a16d"/> <stop offset="0.93" stop-color="#b78559"/> <stop offset="0.96" stop-color="#a26542"/> <stop offset="0.98" stop-color="#894129"/> <stop offset="1" stop-color="#772515"/> </linearGradient> </defs> <title>ReadingGlassesSVG</title> <g id="Layer_2" data-name="Layer 2"> <g id="ReadingGlasses"> <g> <g> <g> <g> <path class="cls-1" d="M449.85,599.61C562,729.31,773.54,1064.23,773.54,1064.23c18,27.78,60.4-54.43,30.92-108-21.26-26.42-164.88-199-290.77-368-34.29-37-40.9-42.64-42.8-43.69-58.67-32.35-96.95-32.83-102.49-4.58s-8.31,22.49.08,27.2C384,578.43,422.33,567.8,449.85,599.61Z"/> <path class="cls-2" d="M553.27,733.92a60.6,60.6,0,0,1,2-55.6l5.09-8.89-39.5,10.72a60.94,60.94,0,0,1,17-60.34q-12.67-16.75-25.18-33.54c-34.29-37-40.91-42.64-42.8-43.68C411.27,510.23,373,509.75,367.45,538s-8.32,22.5.08,27.2c15.51,11.19,53.85.56,81.37,32.38,29.74,34.38,66.46,83.18,104.37,136.34Zm12.42,17.52c25.5,36.13,51.24,73.72,75.5,109.76,2.31-15.69,11.42-27.58,23.79-29.53,16.93-2.68,33.5,14.33,37.19,37.68a97.94,97.94,0,0,1,.8,11.16l1.88-.29c16.93-2.68,33.5,14.33,37.19,37.68a56.12,56.12,0,0,1-2.54,27.82c7.41,6.63,13.18,17.55,15.17,30.14a55.24,55.24,0,0,1-1.49,24.71,55.16,55.16,0,0,1,9,23,56.6,56.6,0,0,1-.59,21.35c7,11,11,17.24,11,17.24,6.33,9.75,15.67,5.93,23.84-5.45a57.79,57.79,0,0,1-11.69-14.37c-12-20.66-9.61-44.18,5-52.7l1.65-1a55.18,55.18,0,0,1-6.43-9.16c-10.35-17.81-10-37.74-.32-48.36-29.17-35.61-85-103.76-148.18-183.91l-3.72,6.48A57.64,57.64,0,0,1,600,722.3l-22,38.44a60.49,60.49,0,0,1-12.31-9.3Zm108,158.46c15.38,23.19,29.69,45,42.38,64.5-.27-2.45-.61-4.89-1-7.34-5.35-33.83-24.55-54.95-41.39-57.16Z"/> </g> <path class="cls-3" d="M382.83,564.8l9.53-45.39L98.73,421.68,76.41,508.59,382.83,564.8Z"/> </g> <g> <g> <path class="cls-4" d="M3191.32,591.57c-111.43,130.35-321,466.51-321,466.51-17.86,27.88-60.72-54.08-31.55-107.77,21.11-26.54,163.71-200,288.6-369.67,34.08-37.18,40.66-42.88,42.54-43.93,58.49-32.71,96.76-33.41,102.47-5.19s8.45,22.45.08,27.2C3257.05,570,3218.65,559.6,3191.32,591.57Z"/> <path class="cls-5" d="M3088.69,726.48a60.59,60.59,0,0,0-2.33-55.58l-5.15-8.86,39.57,10.48a61,61,0,0,0-17.41-60.24q12.57-16.81,25-33.68c34.07-37.19,40.65-42.88,42.53-43.94,58.49-32.7,96.76-33.4,102.47-5.18s8.45,22.44.08,27.19c-15.45,11.29-53.85.88-81.18,32.86-29.54,34.55-66,83.57-103.57,137Zm-12.32,17.6c-25.28,36.27-50.8,74-74.85,110.19-2.41-15.67-11.58-27.51-24-29.39-16.94-2.57-33.41,14.53-37,37.9a97.59,97.59,0,0,0-.74,11.17l-1.88-.28c-16.94-2.58-33.41,14.53-37,37.89a56.07,56.07,0,0,0,2.71,27.82c-7.37,6.67-13.08,17.62-15,30.22a55.11,55.11,0,0,0,1.64,24.7,55.08,55.08,0,0,0-8.91,23.09,56.69,56.69,0,0,0,.72,21.35c-7,11.08-10.86,17.3-10.86,17.3-6.28,9.79-15.64,6-23.87-5.3A58.09,58.09,0,0,0,2859,1036.3c11.89-20.74,9.34-44.24-5.36-52.67l-1.65-1a55.55,55.55,0,0,0,6.37-9.2c10.25-17.87,9.77-37.8,0-48.36,29-35.78,84.36-104.26,147.1-184.78l3.76,6.46a57.63,57.63,0,0,0,32.55-31.66l22.27,38.31a61.12,61.12,0,0,0,12.25-9.37ZM2969.28,903.16c-15.25,23.29-29.43,45.19-42,64.75q.39-3.66.95-7.34c5.15-33.86,24.23-55.1,41.06-57.41Z"/> </g> <path class="cls-6" d="M3258.14,556.37l-9.8-45.34,293-99.45,22.83,86.78-306.08,58Z"/> </g> </g> <g> <g> <g> <path class="cls-7" d="M2147.28,670.09c-55.1-96.6-68.38-117.87-83.48-137.79-19.62-25.88-40.87-47.54-63.81-63.62-27.91-19.55-57.51-30.22-88.57-30.12l-224,.64c-31.06.1-60.59,11-88.37,30.71-22.84,16.23-39.12,30.36-63.39,64S1453.39,672,1453.14,672.5s-109.08,210.21-109.08,210.21c39.41-5.91,44.31-6.1,49.25-6.29C1509.53,633.8,1509.72,633.34,1510,632.81c14.23-23,28.8-41.29,41.82-60,55.84-80.05,102-104.79,146.35-107.5l202.31-.8.47,0c44.39,2.42,97.35,42,148.94,106.63l41.39,62.15,117.22,240.47c27.5,4,38.51,4.81,49.29,5.74Z"/> <path class="cls-8" d="M1987.73,550.31c32.43,26.3,42.5,52.68,42.5,52.68l3.28,11s119.91,233.08,195.24,315.45c1.1,1.6,2.16,3.15,3.2,4.64l2.47,4c0,12.07,16.28,22.23,35.44,22.17s35.32-10.33,35.28-22.41c0,0-6.7-55.16-31.13-131.24s-66.61-173.1-137.54-256.8c-78.42-145.07-148.13-149.35-325.68-148.76H1808l-3.24,0q-3,0-6,0c-177.55.59-240.75,5.31-318.21,150.9-70.37,84.17-111.89,181.46-135.82,257.71s-30.27,131.44-30.27,131.44c0,12.08,16.28,22.24,35.44,22.18,17.56-.06,26.36-9.87,37.73-26.41L1584,615.5s42.24-151,221-151.57l6-1.32,6,1.28c89.42-.3,138.3,60.11,170.72,86.42Z"/> </g> <path class="cls-9" d="M3598.74,369.1c-5.2-13.39-136.56-16.48-183.52-17.16-50-182.75-154.36-262.57-406.13-317.85-60.08-13.19-140-19-235.27-18.82q-17.3,0-35,.33c-67.36-12-464.83-4.57-932.9-3-360.49,1.2-673.13-6.45-827.72-5q-29.34-.21-59.08,1c-20.36.83-41.8,2.24-64.19,4.19-46.39,4-95.67,10.22-146.13,18C676.66,35.68,646,41,617.72,46.26c-9.89,1.86-18.76,3.58-26.5,5.12-4.66.94-7.92,1.6-9.65,2-217.83,60-330.32,152.3-386.68,324.87-50.08,1.13-174.3,5.25-179.26,18.29C2.16,431.92,7.31,495.89,16,510.26c6.34,10.48,97.93,9.64,147.07,8.42-.41,2.74-.81,5.49-1.21,8.27l-.21,3.13.74,224.18C163.35,1040,310,1228.48,612.93,1278.91c101.64,16.92,184.22,21.21,243.15,18.56,4.86-.21,8.24-.43,10.09-.59,348.52-1.09,564.74-250.56,695.94-674,9.05-29.2,24.66-101.25,33.24-151.58,1.66-9.72,3.06-18.64,4.09-26.27l183-.62,164-.54,63.56-.21q2.4,13.92,5,27.64c96.43,517.63,362.86,833.05,741.14,831.8,22.7-.08,58.4-4,104.17-10.81,11.17-1.67,22.78-3.49,34.72-5.44,21.39-3.49,42.84-7.21,63.33-10.94,12.3-2.24,21.56-4,26.74-5,275-43.32,420.82-180.15,460.69-455.57.63-4.33,1.28-8.44,2-12.43,1.3-7.61,2.65-14.33,4.39-22.22v0h0v0a0,0,0,0,0,0,0h0s0,0,0-.06v0c.4-1.75,3.4-15.13,4.18-18.91,8.58-41.55,6.81-87.67-11.47-244.9q-1.46-12.57-3-24.7c45.22,1,150.55,2.13,157.3-9.18C3607.73,468.42,3612.45,404.41,3598.74,369.1ZM1806.09,54c178.88-.6,347.43-2.79,491.19-6.14-154.59,35.75-274.21,139.77-289.37,240l20-.07-7.21,7.26-14.4,14.5a138.43,138.43,0,0,1,.72-14.5q.36-3.58.91-7.19L1590,289.29c.29,1.92.55,3.86.78,5.8q.89,7.14,1.38,14.48l-13.74-12.8-8-7.41,19.54-.07c-12.7-87-68.39-150.5-156.7-194.53-41.38-20.63-83-34.95-133.68-47.05C1445.41,52.06,1619.33,54.62,1806.09,54ZM3413.87,752.86c-.72,3.48-3.72,16.88-4,18.33a.51.51,0,0,0,0,.09h0v0h0c-1.89,8.54-3.37,15.92-4.81,24.29-.74,4.36-1.46,8.85-2.14,13.55-37,255.91-167.68,378.5-425.26,419.09-5.77,1.1-14.88,2.81-27,5-20.24,3.68-41.44,7.37-62.54,10.81-11.76,1.92-23.18,3.71-34.15,5.34-43.77,6.53-77.94,10.27-97.92,10.34-354.53,1.18-607-299.07-699.26-801.15q-3.64-19.87-7-40.17l-2.37-14.52h.11l0-6c0-14.37-27.84-26.29-72.86-25.82l-335.2,1.11c-45,.15-82.51,12.12-82.46,26.34l.52,6h.59l.06,18c0,5.35-1.44,16.64-3.83,31.25-7.6,46.44-24.61,126.39-33.57,155.31-126.24,407.4-330,642.46-656.41,643.54-3,.19-5.87.37-10.16.56-56,2.52-135.56-1.62-234.08-18-281.27-46.82-413.41-216.7-414.29-482L205,531.57c-.08.49-.15,1-.22,1.49l.21-3.13v1.64C241.56,277.39,337,165.66,591.79,95.46c.29,0,3.41-.66,7.93-1.56,7.56-1.51,16.27-3.2,26-5,27.78-5.21,58-10.42,89.73-15.3C765,66,813.37,59.87,858.73,55.93c21.75-1.89,42.53-3.26,62.2-4.06a1277.94,1277.94,0,0,1,206.89,8.86c17.92,2.21,34.07,4.58,48.17,7,8.38,1.41,14.16,2.49,17.06,3.09,224.9,38.3,346.24,98.8,355.88,241.72l.4,6,.85,12.62,0,5.4c0,14.38,37.61,26.26,82.64,25.79L1968,361.15c45-.15,82.51-12.12,82.46-26.34l-.52-6h-.27l-.06-19.37q0-3.39.22-6.81c6.91-105.85,181.27-233.87,382.65-223.81l3.6-.12c5.14-.6,14.88-1.67,28.56-3,22.85-2.3,48.33-4.61,75.8-6.78,79.59-6.27,159.23-10.11,233.44-10.25,92.36-.18,169.49,5.43,225.88,17.81,297.62,65.34,368.61,158.07,402,445.3C3419.53,674.31,3421.19,717.43,3413.87,752.86Z"/> <path class="cls-10" d="M1554.27,454.75c-7.6,46.44-24.61,126.39-33.57,155.31-126.24,407.4-330,642.46-656.41,643.54-3,.19-5.87.37-10.16.56-56,2.52-135.56-1.62-234.08-18-281.27-46.82-413.41-216.7-414.29-482L205,531.57C241.56,277.39,337,165.66,591.79,95.46c.29,0,3.41-.66,7.93-1.56,7.56-1.51,16.27-3.2,26-5,27.78-5.21,58-10.42,89.73-15.3C765,66,813.37,59.87,858.73,55.93c21.75-1.89,42.53-3.26,62.2-4.06a1277.94,1277.94,0,0,1,206.89,8.86c17.92,2.21,34.07,4.58,48.17,7,8.38,1.41,14.16,2.49,17.06,3.09,224.9,38.3,346.24,98.8,355.88,241.72l.4,6a42.88,42.88,0,0,0-6.07,21.94V426A43.44,43.44,0,0,0,1554.27,454.75Z"/> <path class="cls-11" d="M3413.87,752.86c-.72,3.48-3.72,16.88-4,18.33a.51.51,0,0,0,0,.09h0v0h0c-1.89,8.54-3.37,15.92-4.81,24.29-.74,4.36-1.46,8.85-2.14,13.55-37,255.91-167.68,378.5-425.26,419.09-5.77,1.1-14.88,2.81-27,5-20.24,3.68-41.44,7.37-62.54,10.81-11.76,1.92-23.18,3.71-34.15,5.34-43.77,6.53-77.94,10.27-97.92,10.34-354.53,1.18-607-299.07-699.26-801.15A43.92,43.92,0,0,0,2071.51,426V340.39c0-15.71-8.63-29.63-21.65-37.76,6.91-105.85,181.27-233.87,382.65-223.81l3.6-.12c5.14-.6,14.88-1.67,28.56-3,22.85-2.3,48.33-4.61,75.8-6.78,79.59-6.27,159.23-10.11,233.44-10.25,92.36-.18,169.49,5.43,225.88,17.81,297.62,65.34,368.61,158.07,402,445.3C3419.53,674.31,3421.19,717.43,3413.87,752.86Z"/> </g> <path class="cls-12" d="M2071.51,340.39V426a43.92,43.92,0,0,1-14.82,32.59,49.48,49.48,0,0,1-33.3,12.71h-432a49.26,49.26,0,0,1-37.11-16.57,43.44,43.44,0,0,1-11-28.73V340.39a42.88,42.88,0,0,1,6.07-21.94,48.13,48.13,0,0,1,29.12-21.68,50.35,50.35,0,0,1,12.36-1.68h432.58a49.82,49.82,0,0,1,26.47,7.54C2062.88,310.76,2071.51,324.68,2071.51,340.39Z"/> </g> </g> </g> </g> </svg>