<svg xmlns="http://www.w3.org/2000/svg" xmlns:xlink="http://www.w3.org/1999/xlink" viewBox="0 0 425.44 93.07"><defs><style>.cls-1{stroke:#391b0f;stroke-width:0.3px;fill:url(#linear-gradient);}.cls-2{opacity:0.46;fill:url(#linear-gradient-2);}.cls-16,.cls-17,.cls-2,.cls-3{isolation:isolate;}.cls-20,.cls-3{fill:none;}.cls-10,.cls-11,.cls-12,.cls-13,.cls-14,.cls-15,.cls-16,.cls-17,.cls-18,.cls-3,.cls-7,.cls-8,.cls-9{stroke:#000;}.cls-3{stroke-width:0.59px;stroke-dasharray:4.73 0.59;opacity:0.34;}.cls-4{fill:#eee;}.cls-4,.cls-5{stroke:#b8b8b8;stroke-width:0.15px;}.cls-5{fill:#fff;}.cls-6{fill:#f9c22e;stroke:#1c0f13;}.cls-20,.cls-6{stroke-miterlimit:10;}.cls-10,.cls-11,.cls-12,.cls-13,.cls-14,.cls-15,.cls-16,.cls-17,.cls-18,.cls-7,.cls-8,.cls-9{stroke-linecap:square;}.cls-10,.cls-11,.cls-12,.cls-7,.cls-8,.cls-9{stroke-width:0.32px;}.cls-7{fill:url(#linear-gradient-3);}.cls-8{fill:url(#linear-gradient-4);}.cls-9{fill:url(#linear-gradient-5);}.cls-10{fill:url(#linear-gradient-6);}.cls-11{fill:url(#linear-gradient-7);}.cls-12{fill:url(#linear-gradient-8);}.cls-13,.cls-14,.cls-15,.cls-16,.cls-17,.cls-18{stroke-width:0.32px;}.cls-13{fill:url(#radial-gradient);}.cls-14{fill-opacity:0.42;fill:url(#linear-gradient-9);}.cls-15{fill:url(#linear-gradient-10);}.cls-16,.cls-17{opacity:0.5;}.cls-16{fill:url(#linear-gradient-11);}.cls-17{fill:url(#linear-gradient-12);}.cls-18{fill:url(#linear-gradient-13);}.cls-19{fill:#52796f;}.cls-20{stroke:#52796f;stroke-width:10px;}</style><linearGradient id="linear-gradient" x1="-541.59" y1="339.2" x2="-541.65" y2="339.26" gradientTransform="matrix(6.17, 466.73, 454.81, -6.01, -150647.22, 254867.66)" gradientUnits="userSpaceOnUse"><stop offset="0" stop-color="#391b0f"/><stop offset="0.11" stop-color="#5b2318"/><stop offset="0.27" stop-color="#5b2318"/><stop offset="1" stop-color="#905036"/></linearGradient><linearGradient id="linear-gradient-2" x1="318.52" y1="52.76" x2="294.31" y2="81.11" gradientTransform="translate(123.31 -228.94) rotate(45)" gradientUnits="userSpaceOnUse"><stop offset="0" stop-color="#3c1a0f"/><stop offset="1" stop-color="#d7bbb3"/></linearGradient><linearGradient id="linear-gradient-3" x1="-241.33" y1="720.43" x2="-231.58" y2="720.43" gradientTransform="matrix(1, 0, 0, -1, 287, 754.88)" gradientUnits="userSpaceOnUse"><stop offset="0"/><stop offset="0.34" stop-color="#5b3419"/><stop offset="0.51" stop-color="#8d5027"/><stop offset="0.65" stop-color="#8a4d26"/><stop offset="0.77" stop-color="#804222"/><stop offset="0.88" stop-color="#6f311c"/><stop offset="0.99" stop-color="#571814"/><stop offset="1" stop-color="#541513"/></linearGradient><linearGradient id="linear-gradient-4" x1="-241.35" y1="720.48" x2="-231.97" y2="720.48" xlink:href="#linear-gradient-3"/><linearGradient id="linear-gradient-5" x1="-247.52" y1="726.94" x2="-240.7" y2="726.94" gradientTransform="matrix(1, 0, 0, -1, 287, 754.88)" gradientUnits="userSpaceOnUse"><stop offset="0.01" stop-color="#ebc17d"/><stop offset="0.19" stop-color="#dfb77c"/><stop offset="0.6" stop-color="#c08329"/><stop offset="0.87" stop-color="#eabe81"/><stop offset="1" stop-color="#eedcc3"/></linearGradient><linearGradient id="linear-gradient-6" x1="-188.07" y1="720.59" x2="-178.37" y2="720.59" xlink:href="#linear-gradient-3"/><linearGradient id="linear-gradient-7" x1="-181.72" y1="719.82" x2="-185.05" y2="721.74" xlink:href="#linear-gradient-3"/><linearGradient id="linear-gradient-8" x1="-179.01" y1="727.14" x2="-172.19" y2="727.14" xlink:href="#linear-gradient-5"/><radialGradient id="radial-gradient" cx="-210.27" cy="723.33" r="7.76" gradientTransform="matrix(1, 0, 0, -1, 287, 754.88)" gradientUnits="userSpaceOnUse"><stop offset="0" stop-color="#fffbcc"/><stop offset="0.11" stop-color="#fbf2bb"/><stop offset="0.34" stop-color="#f0d98e"/><stop offset="0.37" stop-color="#eed688"/><stop offset="0.69" stop-color="#ebbb10"/><stop offset="1" stop-color="#c3922e"/></radialGradient><linearGradient id="linear-gradient-9" x1="-220.76" y1="722.86" x2="-199.4" y2="722.86" gradientTransform="matrix(1, 0, 0, -1, 287, 754.88)" gradientUnits="userSpaceOnUse"><stop offset="0" stop-color="#fdebf3"/><stop offset="0.11" stop-color="#f7eaf3"/><stop offset="0.23" stop-color="#faf1f2"/><stop offset="0.35" stop-color="#fffef0"/><stop offset="0.48" stop-color="#fbfbf0"/><stop offset="0.6" stop-color="#f0f3f2"/><stop offset="0.71" stop-color="#dde5f4"/><stop offset="0.71" stop-color="#dce4f4"/><stop offset="1" stop-color="#fee9df"/></linearGradient><linearGradient id="linear-gradient-10" x1="-181.02" y1="706.97" x2="-241.43" y2="741.85" xlink:href="#linear-gradient-5"/><linearGradient id="linear-gradient-11" x1="-219.17" y1="717.68" x2="-243.01" y2="731.44" gradientTransform="matrix(1, 0, 0, -1, 287, 754.88)" gradientUnits="userSpaceOnUse"><stop offset="0" stop-color="#d6e5e5" stop-opacity="0.4"/><stop offset="0.21" stop-color="#ededee"/><stop offset="0.29" stop-color="#e9eee7" stop-opacity="0.77"/><stop offset="0.4" stop-color="#e2efdd" stop-opacity="0.4"/><stop offset="0.46" stop-color="#e7f2df" stop-opacity="0.51"/><stop offset="0.6" stop-color="#f4f8e2" stop-opacity="0.77"/><stop offset="0.7" stop-color="#fcfce4" stop-opacity="0.94"/><stop offset="0.75" stop-color="#fffde5"/><stop offset="0.99" stop-color="#cee3e6" stop-opacity="0.4"/></linearGradient><linearGradient id="linear-gradient-12" x1="-176.49" y1="716.68" x2="-204.25" y2="732.71" xlink:href="#linear-gradient-11"/><linearGradient id="linear-gradient-13" x1="-210.13" y1="731.21" x2="-210.13" y2="727.41" gradientTransform="matrix(1, 0, 0, -1, 287, 754.88)" gradientUnits="userSpaceOnUse"><stop offset="0" stop-color="#e4a324"/><stop offset="0.03" stop-color="#e7b141"/><stop offset="0.06" stop-color="#eabf5c"/><stop offset="0.1" stop-color="#edc972"/><stop offset="0.15" stop-color="#efd283"/><stop offset="0.2" stop-color="#f0d88e"/><stop offset="0.28" stop-color="#f1db95"/><stop offset="0.5" stop-color="#f1dc97"/><stop offset="0.7" stop-color="#f0da96"/><stop offset="0.77" stop-color="#ebd391"/><stop offset="0.82" stop-color="#e3c888"/><stop offset="0.86" stop-color="#d8b77c"/><stop offset="0.9" stop-color="#c9a16d"/><stop offset="0.93" stop-color="#b78559"/><stop offset="0.96" stop-color="#a26542"/><stop offset="0.98" stop-color="#894129"/><stop offset="1" stop-color="#772515"/></linearGradient></defs><g id="Layer_2" data-name="Layer 2"><g id="Layer_4" data-name="Layer 4"><path class="cls-1" d="M321.28,16.57a51.52,51.52,0,0,1,14.86,37,61.46,61.46,0,0,1-.81,8.88c-.52,2.53-.52,1.84-2.42,3.43s-2,2.53-5.09,2.62c-2.55.08-15.42.64-26.78-4S286.83,56.37,282.64,52a58.42,58.42,0,0,1-13.37-25.37C268,20.9,268.41,5,269.75,3.91a7.77,7.77,0,0,0,1.66-1.55c1.22-1.12,3.81-1.9,5.95-2s14.19-1.15,25.95,4.07,18,12.18,18,12.18Z"/><path class="cls-2" d="M317.87,18.77C308.24,9,300.16,5.17,291,2.59s-14.29-2-15.5-2a4.74,4.74,0,0,0-2.51.87A3.72,3.72,0,0,1,275.08.8a43.86,43.86,0,0,1,15.6,2.07c9.21,2.72,17.33,6.66,27.15,16.82s13.37,17,16,27.75c2.51,10.16,1,16.22.64,17.16a1.66,1.66,0,0,0,.17-.22c.23-.4,2-6.38-.51-17.21s-6-17.76-15.84-27.93l-.45-.47ZM271.2,2.46a4.75,4.75,0,0,0-1.35,2.26c-.8,3,.89,11,3.57,18.54A74,74,0,0,0,288.14,47c6,6.19,9.54,9.45,19.45,14.67s16.15,5.83,19.64,6.24c2.69.32,3.77-.25,4.26-.63-.48.36-1.5.79-4.28.34A50.53,50.53,0,0,1,308,61.34c-9.82-5.3-13.37-8.56-19.36-14.75a76.4,76.4,0,0,1-14.86-23.65c-2.76-7.5-4.39-15.54-3.65-18.46a4.19,4.19,0,0,1,1.08-2Zm60.29,64.86.09-.07Zm.38-.32-.11.09-.08.07.19-.16Z"/><path class="cls-3" d="M298.68,8.57c0-.52.1-.74.93-.42s7.78,1.94,17.68,12.19S329.94,38.52,330,39.6s-.44.7-1.21.6-3.47.5-4.63-.47-1.8-1.54-1.8-1.54a2.08,2.08,0,0,0,1.93-.4c.83-.76-2-7.09-9.71-15.06s-10.76-9.67-11.77-9.4-.23,2.39-.23,2.39a4.17,4.17,0,0,1-2-1.33c-1.25-1.7-2-5.82-2-5.82Z"/><path class="cls-3" d="M303.41,5.42c-.53,0-1.39-.17-.89.46s6.64,2.59,16.54,12.83,12.5,16.6,13,17.57c.41.79.55-.25.39-1.11-.66-3.61-6.19-12.91-11.75-18-9-8.69-14.21-10.77-17.3-11.7Z"/><path class="cls-4" d="M305.49,8.19c.38-.34.6-.4,1.39.05A12.68,12.68,0,0,1,309,9.77c.54.48.85,1,1.31,1.36s1.51.84,2.11,1.32,1.3,1.44,1.66,1.66a8.31,8.31,0,0,1,2,1.39,20.48,20.48,0,0,1,1.55,1.76c.28.3.71.52,1.67,1.38A16,16,0,0,1,321,20.55c.46.47.8.31,1.67,1.44s1.07,1.85,1.49,2.3a8.61,8.61,0,0,1,1.7,1.69c.55.88.57,1.55,1,2.14s1.07,1,1.52,1.58a8.89,8.89,0,0,1,1.47,2.87,1.48,1.48,0,0,1-.48,1.12c-.37.35-.61-.34-1-1a10.91,10.91,0,0,0-1.26-1.61,15.26,15.26,0,0,1-1.4-1.61c-.28-.44-.72-1.35-1.17-2.11s-1.13-1.11-1.77-1.84-1.1-1.89-1.45-2.19-1.43-1.19-1.81-1.59-1.05-1.32-1.41-1.69-1.56-1.19-1.91-1.63a16.19,16.19,0,0,0-1.52-1.73c-.6-.55-1.47-.87-2.1-1.46s-1.2-1.32-1.81-1.8-1.18-.58-1.93-1.14-1.24-1.14-1.88-1.66a9.67,9.67,0,0,0-1.75-1.17c-.54-.26-.79-.45-.49-.66a9,9,0,0,0,.79-.65Z"/><path class="cls-5" d="M306.17,7.58c.22-.16.42-.38,1.11.09s.73.68.55.81-1,.79-1.63,1.32-1.42,1.37-1.68,1.61a1.31,1.31,0,0,1-.92.26c-.33,0-.54.06-.47-.37a2.43,2.43,0,0,1,.66-1.35c.44-.48,1.47-1.52,1.74-1.74a6.2,6.2,0,0,0,.64-.63Z"/><path class="cls-5" d="M310.07,10.32a.87.87,0,0,1,1,.07c.36.26.62.41.6.58s-.18.28-.42.46a14.76,14.76,0,0,0-1.44,1.14c-.71.66-1,1.14-1.3,1.41s-.49.71-.78.64-.62-.09-.71-.3a1.69,1.69,0,0,1,.44-1.46c.48-.56,1.17-1.44,1.59-1.83a6,6,0,0,1,1.05-.71Z"/><path class="cls-5" d="M320.79,19.3a.65.65,0,0,1,.73.19c.24.24.86.47.81.77s-.64.46-1.11.95a29.59,29.59,0,0,0-2.05,2.22,1.22,1.22,0,0,1-.86.65.63.63,0,0,1-.69-.22c-.13-.21-.2-.41.25-1.15a16.84,16.84,0,0,1,2-2.52c.43-.39.89-.89.89-.89Z"/><path class="cls-5" d="M325.33,23.71c.27.28-.13.57-.38.87s-2,1.94-2.37,2.31-.55.9-.93.85-.53.16-.76-.16a.94.94,0,0,1,.17-1.28c.47-.43,2-1.91,2.27-2.21s.55-.83.73-1,.25-.43.59-.08l.68.7Z"/><path class="cls-5" d="M327.92,27.79c.13.34,0,.64-.38,1.07s-2,2.09-2.24,2.32a2,2,0,0,1-1.2.5c-.31,0-.75-.42-.63-.79a1.54,1.54,0,0,1,.9-1.17,11.79,11.79,0,0,0,2.16-2c.28-.27,0-.58.27-.84s.49-.33.69,0,.43.86.43.86Z"/><path class="cls-5" d="M318.88,17c.23.31-.22.33-.47.63a28.37,28.37,0,0,1-2.24,2.38c-.61.49-.86.79-1.45.6s-.58-.25-.28-.92,1.19-1.29,1.76-1.89,1.05-1.16,1.41-1.48.56-.19.77,0a6.54,6.54,0,0,1,.5.66Z"/><path class="cls-5" d="M330.17,31.45c.23.52.29.86,0,1.19a29.44,29.44,0,0,1-2.41,2.61c-.43.26-1,.55-1.34.44s-.8,0-.32-.83a5.21,5.21,0,0,1,1.2-1.69c.46-.36,1.41-.71,1.78-1.24s.23-.67.37-.87.63.08.63.08l.09.31Z"/><path class="cls-5" d="M315.22,13.6c.24.25.2.21-.23.61s-.64.52-1.25,1.08-.55.77-1,1.16-.58.73-.93.93a.71.71,0,0,1-.8.08c-.42-.15-.46-.9.26-1.69a36.93,36.93,0,0,1,2.62-2.61.6.6,0,0,1,.84,0,1.87,1.87,0,0,0,.47.42Z"/><path class="cls-6" d="M116.63,7.12h34.78v11H134.13v9H149.9v9.07H134.13v9.58h17.28V56.66H116.63Z"/><path class="cls-6" d="M168.83,7.12h21.89l14.33,49.54H188.13l-1.87-9.5H173.44l-2.09,9.5h-16.2Zm15.7,31.18-4.68-21.67L175,38.3Z"/><path class="cls-6" d="M213.91,18.07h-10.3V7.12H241v11h-10.3V56.66H213.91Z"/><path class="cls-6" d="M253.43,7.12h21.89l14.33,49.54H272.73l-1.87-9.5H258L256,56.66h-16.2Zm15.7,31.18-4.68-21.67-4.9,21.67Z"/><path class="cls-6" d="M294.4,7.12H310v38.6h17.21V56.66H294.4Z"/><path class="cls-6" d="M343,55.08a20.4,20.4,0,0,1-11.77-18.94v-29h16.27v29q0,4.32,2.09,6.48t6.12,2.16q4,0,6.12-2.2t2.09-6.44v-29h16.27v29a20.36,20.36,0,0,1-11.77,18.94,31,31,0,0,1-25.42,0Z"/><path class="cls-6" d="M387.28,54.07l3.6-11.16a39.88,39.88,0,0,0,13.25,2.66,10.76,10.76,0,0,0,4.64-.75,2.44,2.44,0,0,0,.69-4,10.94,10.94,0,0,0-3.17-1.69c-1.59-.62-4-1.39-7.13-2.3a18,18,0,0,1-9.07-5.65,13.8,13.8,0,0,1-3.24-9q0-7.92,5.22-12T406.14,6a42.44,42.44,0,0,1,9.08,1,29.72,29.72,0,0,1,7.92,2.84l-3.89,10.87a60.53,60.53,0,0,0-7-2,28.75,28.75,0,0,0-5.8-.61q-4.76,0-4.75,2.59a2.57,2.57,0,0,0,1.55,2.2,33.2,33.2,0,0,0,6.37,2.27q7.56,2,11.45,6.15a14,14,0,0,1,3.89,9.9q0,8-5.19,12.28t-15.33,4.28Q394.27,57.81,387.28,54.07Z"/><path class="cls-6" d="M.93,54.07l3.6-11.16a39.93,39.93,0,0,0,13.25,2.66,10.76,10.76,0,0,0,4.64-.75,2.43,2.43,0,0,0,1.48-2.27,2.38,2.38,0,0,0-.79-1.77,10.94,10.94,0,0,0-3.17-1.69q-2.37-.93-7.13-2.3a18,18,0,0,1-9.07-5.65,13.8,13.8,0,0,1-3.24-9q0-7.92,5.22-12T19.8,6a42.42,42.42,0,0,1,9.07,1,29.72,29.72,0,0,1,7.92,2.84L32.9,20.73a60.53,60.53,0,0,0-7-2,28.68,28.68,0,0,0-5.8-.61c-3.16,0-4.75.86-4.75,2.59a2.58,2.58,0,0,0,1.55,2.2,33.48,33.48,0,0,0,6.37,2.27q7.56,2,11.45,6.15a14,14,0,0,1,3.89,9.9q0,8-5.19,12.28T18.07,57.81Q7.92,57.81.93,54.07Z"/><g id="Layer_2-2" data-name="Layer 2"><g id="ReadingGlasses"><path class="cls-7" d="M47.54,30.23a121.34,121.34,0,0,1,7,10c.39.6,1.3-1.17.66-2.33-.45-.57-3.56-4.3-6.28-7.95A8.21,8.21,0,0,0,48,29c-1.27-.7-2.09-.71-2.21-.1s-.18.49,0,.59S47,29.54,47.54,30.23Z"/><path class="cls-8" d="M49.78,33.13a1.3,1.3,0,0,1,0-1.2l.11-.19-.85.23a1.29,1.29,0,0,1,.37-1.3l-.55-.73A8.21,8.21,0,0,0,48,29c-1.27-.7-2.1-.71-2.22-.1s-.17.48,0,.59,1.16,0,1.75.7S49,32,49.78,33.13Zm.27.38c.55.78,1.1,1.59,1.63,2.37a.69.69,0,0,1,.51-.64c.37-.06.73.31.8.82a1,1,0,0,1,0,.24h0c.37-.06.73.31.81.81a1.26,1.26,0,0,1-.06.61,1.07,1.07,0,0,1,.33.65,1.19,1.19,0,0,1,0,.53,1.27,1.27,0,0,1,.19.5,1.19,1.19,0,0,1,0,.46l.24.37c.13.21.33.13.51-.12a1.26,1.26,0,0,1-.25-.31.83.83,0,0,1,.11-1.14l0,0a1.43,1.43,0,0,1-.14-.2.91.91,0,0,1,0-1c-.63-.77-1.84-2.24-3.2-4l-.08.14a1.25,1.25,0,0,1-.71-.68l-.48.83A1.64,1.64,0,0,1,50.05,33.51Zm2.33,3.42.92,1.39,0-.16c-.11-.73-.53-1.19-.89-1.23Z"/><path class="cls-9" d="M46.1,29.48l.2-1L40,26.39l-.48,1.87Z"/><path class="cls-10" d="M106.76,30.06a120.58,120.58,0,0,0-6.93,10.07c-.39.6-1.32-1.17-.69-2.33.46-.57,3.54-4.32,6.24-8a8.11,8.11,0,0,1,.92-.95c1.26-.71,2.09-.72,2.21-.11s.18.48,0,.59C108.18,29.59,107.35,29.36,106.76,30.06Z"/><path class="cls-11" d="M104.54,33a1.3,1.3,0,0,0-.05-1.2l-.11-.19.86.22a1.32,1.32,0,0,0-.38-1.3l.54-.72a8,8,0,0,1,.92-1c1.26-.71,2.09-.73,2.21-.12s.18.49,0,.59c-.33.25-1.16,0-1.75.71s-1.43,1.81-2.24,3Zm-.26.38c-.55.78-1.1,1.6-1.62,2.38a.7.7,0,0,0-.52-.64c-.36-.05-.72.32-.8.82a1.93,1.93,0,0,0,0,.24h0c-.37-.06-.73.31-.8.82a1.12,1.12,0,0,0,.06.6,1.1,1.1,0,0,0-.33.65,1.06,1.06,0,0,0,0,.53,1.28,1.28,0,0,0-.2.5,1.41,1.41,0,0,0,0,.46l-.24.38c-.13.21-.33.13-.51-.12a1.26,1.26,0,0,0,.25-.31.84.84,0,0,0-.11-1.14l0,0a1.43,1.43,0,0,0,.14-.2.91.91,0,0,0,0-1c.62-.77,1.82-2.25,3.17-4l.09.14a1.25,1.25,0,0,0,.7-.69l.48.83a1.06,1.06,0,0,0,.26-.2ZM102,36.8l-.9,1.39a.77.77,0,0,1,0-.15c.11-.74.52-1.19.88-1.24Z"/><path class="cls-12" d="M108.2,29.3l-.21-1,6.33-2.15.49,1.87-6.61,1.25Z"/><path class="cls-6" d="M42.19,7.12h16.2l4.68,31.61,4.82-23.18H84.67l4.89,23.18L94.24,7.12h16.2L99.21,56.66H82.44L76.32,30,70.2,56.66H53.42Z"/><path class="cls-13" d="M84.21,31.76a26.86,26.86,0,0,0-1.81-3A6.22,6.22,0,0,0,81,27.4a3.31,3.31,0,0,0-1.91-.65H74.28a6.3,6.3,0,0,0-1.91.68A5,5,0,0,0,71,28.81c-.53.73-1.78,3-1.78,3l-2.36,4.54a9.79,9.79,0,0,1,1.06-.13C70.43,31,70.44,31,70.44,31c.31-.5.63-.9.91-1.3a6.57,6.57,0,0,1,3.16-2.32l4.37,0h0c1,.06,2.11.91,3.22,2.31L83,31l2.54,5.2c.59.09.83.1,1.06.12Z"/><path class="cls-14" d="M80.76,29.17a3.13,3.13,0,0,1,.91,1.14l.07.23s2.59,5,4.21,6.81a.36.36,0,0,1,.07.1l0,.08c0,.26.36.48.77.48s.76-.22.76-.48a17.72,17.72,0,0,0-.67-2.83,16.41,16.41,0,0,0-3-5.54c-1.69-3.13-3.19-3.22-7-3.21h-.26c-3.83,0-5.19.12-6.86,3.26a16.37,16.37,0,0,0-2.93,5.55,17.65,17.65,0,0,0-.65,2.84c0,.26.35.48.76.47s.57-.21.82-.56l4.23-6.93a4.81,4.81,0,0,1,4.77-3.27l.13,0,.12,0a5.4,5.4,0,0,1,3.69,1.86Z"/><path class="cls-15" d="M115.56,25.25c-.11-.29-3-.36-4-.37-1.08-3.95-3.34-5.67-8.78-6.87a24.53,24.53,0,0,0-5.08-.4H97c-1.46-.25-10-.09-20.15-.06-7.79,0-14.54-.14-17.88-.11l-1.28,0-1.39.09c-1,.09-2.06.22-3.15.39-.7.11-1.36.22-2,.34l-.57.11-.21,0c-4.71,1.3-7.13,3.29-8.35,7-1.08,0-3.77.11-3.87.39a4.21,4.21,0,0,0,0,2.46c.14.23,2.12.21,3.18.18l0,.18v4.91s3.2,10.24,9.75,11.33a25.35,25.35,0,0,0,5.25.4h.22c7.53,0,12.2-5.41,15-14.56.19-.63.53-2.19.72-3.27,0-.21.06-.4.09-.58l4,0,3.54,0h1.37c0,.2.07.4.11.6,2.08,11.18,7.84,18,16,18a16.85,16.85,0,0,0,2.25-.23l.75-.12,1.37-.23.58-.11c5.94-.94,9.08-3.89,10-9.84a2.51,2.51,0,0,1,0-.27c0-.16.06-.31.1-.48h0s.07-.33.08-.41c.19-.9.15-1.89-.24-5.29,0-.18,0-.36-.07-.53,1,0,3.25,0,3.4-.2A4.23,4.23,0,0,0,115.56,25.25ZM76.84,18.44c3.86,0,7.5-.06,10.61-.13-3.34.77-5.92,3-6.25,5.18h.43l-.16.16-.31.31c0-.1,0-.21,0-.31a1,1,0,0,1,0-.16h-9c0,.08,0,.12,0,.16l0,.31-.3-.27-.17-.16h.42a5.6,5.6,0,0,0-3.38-4.21,13.46,13.46,0,0,0-2.89-1C69.05,18.4,72.81,18.46,76.84,18.44Zm34.71,15.09c0,.07-.08.36-.09.39h0c0,.18-.07.34-.1.52s0,.19,0,.29c-.8,5.53-3.62,8.17-9.18,9l-.58.11-1.35.23-.74.12a16.8,16.8,0,0,1-2.11.22c-7.65,0-13.1-6.46-15.1-17.29l-.15-.87,0-.31h0v-.13c0-.3-.59-.55-1.54-.54H73.24s-1.78.27-1.78.58V26h0v.39a3.77,3.77,0,0,1-.07.67c-.16,1-.53,2.73-.72,3.35C68,39.25,63.55,44.33,56.5,44.35l-.22,0A25.72,25.72,0,0,1,51.22,44c-6.07-1-8.95-10.41-8.95-10.41V28.76l0,0v0s2.86-7.9,8.36-9.42l.17,0,.56-.11c.6-.11,1.26-.23,1.94-.33,1.07-.17,2.12-.3,3.1-.38l1.34-.09a27.82,27.82,0,0,1,4.47.19l1,.15.37.07c4.86.82,7.48,2.13,7.68,5.22v.52c0,.31.82.56,1.8.56h7.24c1,0,1.78-.29,1.78-.6v-.13h0v-.57c.15-2.28,3.92-5,8.26-4.83h.08l.62-.07c.49-.05,1-.1,1.63-.14,1.72-.14,3.44-.22,5-.23a23.86,23.86,0,0,1,4.88.39c6.42,1.41,8,3.41,8.68,9.61C111.67,31.83,111.7,32.76,111.55,33.53Z"/><path class="cls-16" d="M71.41,27.1c-.17,1-.53,2.73-.73,3.35C68,39.26,63.55,44.34,56.5,44.36h-.22A24.25,24.25,0,0,1,51.22,44c-6.08-1-8.93-4.68-8.95-10.41l0-4.81c.79-5.49,2.86-7.91,8.36-9.42l.17,0,.57-.11,1.93-.33c1.07-.16,2.12-.29,3.1-.38l1.34-.09a29,29,0,0,1,4.47.19c.39.05.74.1,1.05.16l.36.06c4.86.83,7.49,2.14,7.69,5.23v.13a1,1,0,0,0-.13.47v1.85A.94.94,0,0,0,71.41,27.1Z"/><path class="cls-17" d="M111.57,33.54c0,.07-.08.36-.09.4h0c0,.18-.07.34-.1.52s0,.19,0,.29c-.8,5.53-3.62,8.18-9.18,9.06l-.59.1-1.35.24-.73.11a17.62,17.62,0,0,1-2.12.23c-7.66,0-13.11-6.46-15.1-17.31a1,1,0,0,0,.32-.7V24.63a1,1,0,0,0-.47-.82c.15-2.28,3.91-5,8.26-4.83h.08l.62-.07c.49-.05,1-.1,1.63-.14,1.72-.14,3.44-.22,5-.22a23.32,23.32,0,0,1,4.88.38c6.42,1.41,8,3.41,8.68,9.62C111.69,31.84,111.73,32.77,111.57,33.54Z"/><path class="cls-18" d="M82.58,24.64v1.85a1,1,0,0,1-.32.7,1,1,0,0,1-.72.27H72.21a1,1,0,0,1-.8-.35.94.94,0,0,1-.24-.62V24.64a1,1,0,0,1,.13-.47,1.07,1.07,0,0,1,.63-.47,1.26,1.26,0,0,1,.27,0h9.34a1.06,1.06,0,0,1,.57.17A1,1,0,0,1,82.58,24.64Z"/></g></g><path class="cls-19" d="M198.22,79.71v4a.7.7,0,0,1-.13.44.41.41,0,0,1-.32.15.42.42,0,0,1-.31-.13.51.51,0,0,1-.16-.37l-.15-1.73h-4v5.76h4.1a.51.51,0,0,1,.4.15.45.45,0,0,1,.14.34.48.48,0,0,1-.14.36.5.5,0,0,1-.39.15H190.1a.6.6,0,0,1-.44-.15.48.48,0,0,1-.16-.36.44.44,0,0,1,.16-.34.57.57,0,0,1,.42-.15h2V76.12h-1.59a.58.58,0,0,1-.41-.14.49.49,0,0,1-.15-.35.46.46,0,0,1,.16-.36.61.61,0,0,1,.43-.16H201a.68.68,0,0,1,.47.17.6.6,0,0,1,.19.47v3.16a.51.51,0,0,1-.14.38.49.49,0,0,1-.33.14.52.52,0,0,1-.34-.12.47.47,0,0,1-.16-.33l-.16-2.86H193.2v5h4l.15-1.56a.63.63,0,0,1,.16-.38.41.41,0,0,1,.63,0A.74.74,0,0,1,198.22,79.71Z"/><path class="cls-19" d="M212.35,83.1a3.54,3.54,0,0,0-.53-2.1,2.14,2.14,0,0,0-1.85-.73,7.06,7.06,0,0,0-1.35.12,6.21,6.21,0,0,0-1.24.41,5,5,0,0,1-.21,1.36.58.58,0,0,1-.56.45.6.6,0,0,1-.52-.23,1,1,0,0,1-.19-.61,1.82,1.82,0,0,1,.52-1.26,3.3,3.3,0,0,1,1.44-.88,6.6,6.6,0,0,1,2.12-.32,3.89,3.89,0,0,1,2.12.5,2.65,2.65,0,0,1,1.07,1.45,7.92,7.92,0,0,1,.31,2.37v3.66a.75.75,0,0,0,.16.56.68.68,0,0,0,.44.14,1.39,1.39,0,0,0,.65-.18,2,2,0,0,0,.54-.39.38.38,0,0,1,.28-.14.37.37,0,0,1,.3.15.5.5,0,0,1,.13.34.4.4,0,0,1-.11.29,2.7,2.7,0,0,1-.87.63,2.37,2.37,0,0,1-1,.23,1.74,1.74,0,0,1-1-.29,1.67,1.67,0,0,1-.55-1.12,4.37,4.37,0,0,1-1.61,1.08,5.76,5.76,0,0,1-2.26.43,2.83,2.83,0,0,1-2.05-.72,2.56,2.56,0,0,1-.73-1.92,2.19,2.19,0,0,1,.77-1.84,4,4,0,0,1,1.9-.82,26.79,26.79,0,0,1,3-.33l.86-.06Zm0,3.52V84.14l-.48,0c-1.28.12-2.24.24-2.88.35a3.62,3.62,0,0,0-1.51.59,1.47,1.47,0,0,0-.57,1.25,1.57,1.57,0,0,0,.49,1.29,1.94,1.94,0,0,0,1.29.41,5.53,5.53,0,0,0,2-.4A4.35,4.35,0,0,0,212.35,86.62Z"/><path class="cls-19" d="M227.82,82.51a2.39,2.39,0,0,0-.53-1.65,2.05,2.05,0,0,0-1.58-.59,4.51,4.51,0,0,0-1.93.41,3.66,3.66,0,0,0-1.34,1,2,2,0,0,0-.48,1.23v4.94h1.23a.56.56,0,0,1,.42.14.45.45,0,0,1,.14.33.44.44,0,0,1-.16.34.57.57,0,0,1-.42.15h-3.55a.51.51,0,0,1-.4-.15.5.5,0,0,1-.14-.36.44.44,0,0,1,.13-.32.45.45,0,0,1,.36-.13h1.26V80.53l-1.26.26a1,1,0,0,1-.24,0,.41.41,0,0,1-.32-.13.4.4,0,0,1-.13-.31.53.53,0,0,1,.09-.3.46.46,0,0,1,.29-.18l1.93-.39.21,0a.41.41,0,0,1,.45.45l.06,1.41a3.38,3.38,0,0,1,.87-1,4.44,4.44,0,0,1,1.32-.73,4.56,4.56,0,0,1,1.55-.27,3.26,3.26,0,0,1,2.47.86,3.33,3.33,0,0,1,.82,2.42v5.29h1.28a.43.43,0,0,1,.35.14.51.51,0,0,1,0,.67.45.45,0,0,1-.36.15h-4a.5.5,0,0,1-.53-.51.47.47,0,0,1,.12-.32.49.49,0,0,1,.37-.13h1.71Z"/><path class="cls-19" d="M237.79,80.73v5.72a1.4,1.4,0,0,0,.56,1.23,2.5,2.5,0,0,0,1.46.4,5.57,5.57,0,0,0,1.7-.29,5,5,0,0,0,1.45-.71.17.17,0,0,1,.13,0,.46.46,0,0,1,.33.2.62.62,0,0,1,.16.4.32.32,0,0,1-.06.18,2.74,2.74,0,0,1-.85.58,7.4,7.4,0,0,1-1.4.47,7.16,7.16,0,0,1-1.58.18,3.71,3.71,0,0,1-1.49-.3,3,3,0,0,1-1.12-.8,1.72,1.72,0,0,1-.41-1.08V80.73H235a.54.54,0,0,1-.4-.15.54.54,0,0,1-.14-.36.44.44,0,0,1,.13-.32.48.48,0,0,1,.36-.13h1.73q0-1.47,0-2.1a2.91,2.91,0,0,1,.18-.93.51.51,0,0,1,.49-.3.37.37,0,0,1,.34.13.83.83,0,0,1,.08.4v2.8h4.36a.42.42,0,0,1,.33.14.51.51,0,0,1,0,.68.43.43,0,0,1-.34.14Z"/><path class="cls-19" d="M255.94,83.1a3.46,3.46,0,0,0-.53-2.1,2.12,2.12,0,0,0-1.85-.73,7.06,7.06,0,0,0-1.35.12,5.92,5.92,0,0,0-1.23.41,5.38,5.38,0,0,1-.22,1.36.58.58,0,0,1-.56.45.61.61,0,0,1-.52-.23,1,1,0,0,1-.18-.61,1.81,1.81,0,0,1,.51-1.26,3.4,3.4,0,0,1,1.45-.88,6.52,6.52,0,0,1,2.12-.32,3.85,3.85,0,0,1,2.11.5,2.65,2.65,0,0,1,1.07,1.45,7.61,7.61,0,0,1,.31,2.37v3.66a.75.75,0,0,0,.16.56.69.69,0,0,0,.45.14,1.35,1.35,0,0,0,.64-.18,2,2,0,0,0,.54-.39.37.37,0,0,1,.59,0,.55.55,0,0,1,.13.34.37.37,0,0,1-.12.29,2.77,2.77,0,0,1-.86.63,2.41,2.41,0,0,1-1,.23,1.71,1.71,0,0,1-1-.29,1.59,1.59,0,0,1-.55-1.12,4.41,4.41,0,0,1-1.62,1.08,5.75,5.75,0,0,1-2.25.43,2.8,2.8,0,0,1-2-.72,2.57,2.57,0,0,1-.74-1.92,2.22,2.22,0,0,1,.77-1.84,4,4,0,0,1,1.91-.82,26.26,26.26,0,0,1,3-.33l.85-.06Zm0,3.52V84.14l-.48,0c-1.28.12-2.24.24-2.87.35a3.61,3.61,0,0,0-1.52.59,1.46,1.46,0,0,0-.56,1.25,1.6,1.6,0,0,0,.48,1.29,2,2,0,0,0,1.3.41,5.52,5.52,0,0,0,2-.4A4.35,4.35,0,0,0,255.94,86.62Z"/><path class="cls-19" d="M264.3,82a2.17,2.17,0,0,1,1.08-2,5.41,5.41,0,0,1,2.69-.61,6.2,6.2,0,0,1,2,.31,2.63,2.63,0,0,1,1.3.77V80a.53.53,0,0,1,.14-.42.46.46,0,0,1,.35-.16.43.43,0,0,1,.34.15.56.56,0,0,1,.14.42l0,2.36a.5.5,0,0,1-.13.33.46.46,0,0,1-.34.1.34.34,0,0,1-.37-.22,2.54,2.54,0,0,1-.1-.77,2.1,2.1,0,0,0-1.2-1.11,5.74,5.74,0,0,0-2.16-.36c-1.66,0-2.48.51-2.48,1.52a1.25,1.25,0,0,0,.32.88,2.46,2.46,0,0,0,1.16.52l3,.61a3.44,3.44,0,0,1,1.75.81,2.37,2.37,0,0,1,.62,1.79,2.19,2.19,0,0,1-1,2,5,5,0,0,1-2.78.67,6.16,6.16,0,0,1-2.05-.33,3.71,3.71,0,0,1-1.59-1.07v.71a.49.49,0,0,1-.12.36.38.38,0,0,1-.3.13.53.53,0,0,1-.33-.13.45.45,0,0,1-.14-.33l0-2.65a.7.7,0,0,1,.13-.46.36.36,0,0,1,.29-.15.41.41,0,0,1,.31.12.78.78,0,0,1,.11.49,1.76,1.76,0,0,0,.48,1.2,3,3,0,0,0,1.29.84,5.26,5.26,0,0,0,1.82.31,4,4,0,0,0,2-.42,1.38,1.38,0,0,0,.71-1.27,1.45,1.45,0,0,0-.32-1,1.85,1.85,0,0,0-1.06-.51l-3.12-.61a3.88,3.88,0,0,1-1.82-.78A2,2,0,0,1,264.3,82Z"/><path class="cls-19" d="M277.76,79.77h3.43a.43.43,0,0,1,.48.49.42.42,0,0,1-.46.47H280l3,7,2.67-7h-1a.42.42,0,0,1-.46-.47c0-.33.16-.49.47-.49h3.11q.54,0,.54.48a.43.43,0,0,1-.49.48h-.93l-3.55,9.08a7.36,7.36,0,0,1-1.42,2.4,2.81,2.81,0,0,1-2.09.86.88.88,0,0,1-.62-.17.55.55,0,0,1-.17-.44c0-.38.26-.56.79-.56a1.87,1.87,0,0,0,.85-.21,2.58,2.58,0,0,0,.73-.53,2,2,0,0,0,.44-.67l.63-1.63c-.44-.92-.91-1.93-1.39-3s-.79-1.79-.93-2.09c-.68-1.55-1.13-2.56-1.34-3h-1.09a.42.42,0,0,1-.48-.47C277.23,79.93,277.4,79.77,277.76,79.77Z"/><path class="cls-19" d="M314.47,79.71v4a.7.7,0,0,1-.13.44.41.41,0,0,1-.32.15.42.42,0,0,1-.31-.13.51.51,0,0,1-.16-.37l-.15-1.73h-3.95v5.76h4.1a.51.51,0,0,1,.4.15.45.45,0,0,1,.14.34.48.48,0,0,1-.14.36.5.5,0,0,1-.39.15h-7.21a.6.6,0,0,1-.44-.15.48.48,0,0,1-.16-.36.44.44,0,0,1,.16-.34.57.57,0,0,1,.42-.15h2V76.12h-1.59a.58.58,0,0,1-.41-.14.49.49,0,0,1-.15-.35.46.46,0,0,1,.16-.36.61.61,0,0,1,.43-.16h10.44a.68.68,0,0,1,.47.17.6.6,0,0,1,.19.47v3.16a.51.51,0,0,1-.14.38.49.49,0,0,1-.33.14.52.52,0,0,1-.34-.12.47.47,0,0,1-.16-.33l-.16-2.86h-7.29v5h3.95l.15-1.56a.63.63,0,0,1,.16-.38.41.41,0,0,1,.63,0A.74.74,0,0,1,314.47,79.71Z"/><path class="cls-19" d="M321.36,84.17A5.07,5.07,0,0,1,322,81.6a4.22,4.22,0,0,1,1.75-1.7,6,6,0,0,1,5.2,0,4.19,4.19,0,0,1,1.74,1.7,5.56,5.56,0,0,1,0,5.14,4.25,4.25,0,0,1-1.74,1.7,5.93,5.93,0,0,1-5.2,0,4.28,4.28,0,0,1-1.75-1.7A5.07,5.07,0,0,1,321.36,84.17Zm1.26,0a4.57,4.57,0,0,0,.44,2,3.2,3.2,0,0,0,1.28,1.37,4.19,4.19,0,0,0,4,0,3.14,3.14,0,0,0,1.28-1.37,4.9,4.9,0,0,0,0-4.06,3.22,3.22,0,0,0-1.28-1.38,4.19,4.19,0,0,0-4,0,3.28,3.28,0,0,0-1.28,1.38A4.54,4.54,0,0,0,322.62,84.17Z"/><path class="cls-19" d="M335.89,84.17a5.17,5.17,0,0,1,.62-2.57,4.22,4.22,0,0,1,1.75-1.7,6,6,0,0,1,5.2,0,4.28,4.28,0,0,1,1.75,1.7,5.64,5.64,0,0,1,0,5.14,4.34,4.34,0,0,1-1.75,1.7,5.93,5.93,0,0,1-5.2,0,4.28,4.28,0,0,1-1.75-1.7A5.17,5.17,0,0,1,335.89,84.17Zm1.26,0a4.57,4.57,0,0,0,.44,2,3.2,3.2,0,0,0,1.28,1.37,4.19,4.19,0,0,0,4,0,3.14,3.14,0,0,0,1.28-1.37,4.9,4.9,0,0,0,0-4.06,3.22,3.22,0,0,0-1.28-1.38,4.19,4.19,0,0,0-4,0,3.28,3.28,0,0,0-1.28,1.38A4.54,4.54,0,0,0,337.15,84.17Z"/><path class="cls-19" d="M354,80.73v5.72a1.4,1.4,0,0,0,.56,1.23,2.5,2.5,0,0,0,1.46.4,5.57,5.57,0,0,0,1.7-.29,5,5,0,0,0,1.45-.71.17.17,0,0,1,.13,0,.46.46,0,0,1,.33.2.62.62,0,0,1,.16.4.32.32,0,0,1-.06.18,2.74,2.74,0,0,1-.85.58,7.4,7.4,0,0,1-1.4.47,7.16,7.16,0,0,1-1.58.18,3.71,3.71,0,0,1-1.49-.3,3,3,0,0,1-1.12-.8,1.72,1.72,0,0,1-.41-1.08V80.73h-1.68a.54.54,0,0,1-.4-.15.54.54,0,0,1-.14-.36.44.44,0,0,1,.13-.32.48.48,0,0,1,.36-.13h1.73q0-1.47,0-2.1a2.91,2.91,0,0,1,.18-.93.51.51,0,0,1,.49-.3.37.37,0,0,1,.34.13.83.83,0,0,1,.08.4v2.8h4.36a.42.42,0,0,1,.33.14.51.51,0,0,1,0,.68.43.43,0,0,1-.34.14Z"/><path class="cls-19" d="M366.7,75c.32,0,.48.15.48.46v5.08a5.42,5.42,0,0,1,1.48-.92,4.94,4.94,0,0,1,1.85-.32,4.35,4.35,0,0,1,2.35.63,4.17,4.17,0,0,1,1.54,1.73,5.63,5.63,0,0,1,.54,2.5,5.76,5.76,0,0,1-.53,2.52,4.06,4.06,0,0,1-1.52,1.73,4.35,4.35,0,0,1-2.34.62,4.72,4.72,0,0,1-1.93-.39,4.67,4.67,0,0,1-1.49-1,3.27,3.27,0,0,1-.08.83c-.06.18-.12.3-.21.34a.57.57,0,0,1-.31.07.42.42,0,0,1-.35-.18,1.49,1.49,0,0,1-.13-.73V76.05l-1.5.1-.1,0h-.13a.44.44,0,0,1-.33-.13.4.4,0,0,1-.13-.31.5.5,0,0,1,.1-.31.41.41,0,0,1,.29-.17l2.21-.23Zm3.83,13.07a3,3,0,0,0,1.79-.53,3.27,3.27,0,0,0,1.12-1.41,5,5,0,0,0,.37-2,4.78,4.78,0,0,0-.39-2,3.09,3.09,0,0,0-3-2,3.94,3.94,0,0,0-3.26,1.51v4.6a4.14,4.14,0,0,0,1.39,1.24A4.08,4.08,0,0,0,370.53,88.08Z"/><path class="cls-19" d="M386.73,83.1a3.46,3.46,0,0,0-.54-2.1,2.12,2.12,0,0,0-1.84-.73,7.09,7.09,0,0,0-1.36.12,5.92,5.92,0,0,0-1.23.41,5.46,5.46,0,0,1-.21,1.36.59.59,0,0,1-.57.45.61.61,0,0,1-.52-.23,1,1,0,0,1-.18-.61,1.78,1.78,0,0,1,.52-1.26,3.3,3.3,0,0,1,1.44-.88,6.52,6.52,0,0,1,2.12-.32,3.85,3.85,0,0,1,2.11.5,2.71,2.71,0,0,1,1.08,1.45,8,8,0,0,1,.3,2.37v3.66a.75.75,0,0,0,.16.56.69.69,0,0,0,.45.14,1.35,1.35,0,0,0,.64-.18,2,2,0,0,0,.54-.39.37.37,0,0,1,.59,0,.55.55,0,0,1,.13.34.37.37,0,0,1-.12.29,2.77,2.77,0,0,1-.86.63,2.37,2.37,0,0,1-1,.23,1.72,1.72,0,0,1-1-.29,1.59,1.59,0,0,1-.55-1.12,4.46,4.46,0,0,1-1.61,1.08,5.83,5.83,0,0,1-2.26.43,2.8,2.8,0,0,1-2.05-.72,2.57,2.57,0,0,1-.74-1.92,2.22,2.22,0,0,1,.77-1.84,4,4,0,0,1,1.91-.82,26.52,26.52,0,0,1,3-.33l.86-.06Zm0,3.52V84.14l-.49,0c-1.28.12-2.24.24-2.87.35a3.66,3.66,0,0,0-1.52.59,1.49,1.49,0,0,0-.56,1.25,1.6,1.6,0,0,0,.48,1.29,2,2,0,0,0,1.3.41,5.52,5.52,0,0,0,2-.4A4.48,4.48,0,0,0,386.73,86.62Z"/><path class="cls-19" d="M399.72,75a.45.45,0,0,1,.31.1.34.34,0,0,1,.11.27V87.88h4a.42.42,0,0,1,.33.14.54.54,0,0,1,0,.68.44.44,0,0,1-.34.14h-9.38a.54.54,0,0,1-.4-.15.49.49,0,0,1-.14-.34.44.44,0,0,1,.13-.33.45.45,0,0,1,.36-.14H399V76.06l-4.14.33h-.08a.42.42,0,0,1-.35-.14.51.51,0,0,1-.13-.35.54.54,0,0,1,.09-.31.42.42,0,0,1,.28-.16l4.9-.44Z"/><path class="cls-19" d="M414.25,75a.45.45,0,0,1,.31.1.31.31,0,0,1,.11.27V87.88h4A.42.42,0,0,1,419,88a.51.51,0,0,1,0,.68.43.43,0,0,1-.34.14h-9.38a.54.54,0,0,1-.4-.15.49.49,0,0,1-.14-.34.49.49,0,0,1,.13-.33.46.46,0,0,1,.37-.14h4.32V76.06l-4.14.33h-.08a.42.42,0,0,1-.35-.14.51.51,0,0,1-.13-.35.54.54,0,0,1,.09-.31.42.42,0,0,1,.29-.16l4.89-.44Z"/><line class="cls-20" x1="21.37" y1="85.44" x2="171.37" y2="85.44"/></g></g></svg>